<svg xmlns="http://www.w3.org/2000/svg" viewBox="34.84 188.04 410.25 83"><rect xmlns="http://www.w3.org/2000/svg" width="84" height="83" rx="10" ry="10" x="34.838" y="188.041" style="stroke-opacity:0;fill:#384259"></rect><path xmlns="http://www.w3.org/2000/svg" d="M67.572 227.187a.814.814 0 0 1-.819.819h-2.365a.815.815 0 0 1-.818-.819v-2.365c0-.455.364-.818.818-.818h2.365c.455 0 .819.363.819.818zm5.457-2.32a.815.815 0 0 0-.818-.818h-2.365a.816.816 0 0 0-.819.819v2.365c0 .454.364.818.819.818h2.365a.815.815 0 0 0 .818-.818zm5.458 0a.815.815 0 0 0-.819-.818h-2.365a.815.815 0 0 0-.818.819v2.365c0 .454.363.818.818.818h2.365a.815.815 0 0 0 .819-.818zm-5.458 5.322a.814.814 0 0 0-.818-.819h-2.365a.816.816 0 0 0-.819.819v2.364c0 .455.364.82.819.82h2.365a.814.814 0 0 0 .818-.82zm5.458 0a.814.814 0 0 0-.819-.819h-2.365a.815.815 0 0 0-.818.819v2.364c0 .455.363.82.818.82h2.365a.815.815 0 0 0 .819-.82zm5.502 2.319v-2.365a.815.815 0 0 0-.818-.818h-2.365a.815.815 0 0 0-.819.818v2.365c0 .455.364.819.819.819h2.365c.41.045.818-.364.818-.819m-17.236-3.183h-2.365a.816.816 0 0 0-.818.818v2.365c0 .455.364.819.818.819h2.365a.814.814 0 0 0 .819-.819v-2.365c0-.41-.364-.818-.819-.818m10.915 5.32h-2.365a.816.816 0 0 0-.818.82v2.364c0 .455.363.819.818.819h2.365a.815.815 0 0 0 .819-.82v-2.364a.814.814 0 0 0-.819-.819m-5.457 0h-2.365a.816.816 0 0 0-.819.82v2.364c0 .455.364.819.819.819h2.365a.814.814 0 0 0 .818-.82v-2.364a.814.814 0 0 0-.818-.819m-7.55-26.604a1.32 1.32 0 0 0-1.319 1.319v4.002a1.32 1.32 0 0 0 1.32 1.319h1.818a1.32 1.32 0 0 0 1.32-1.32v-4a1.32 1.32 0 0 0-1.32-1.32zm16.418 0a1.32 1.32 0 0 0-1.319 1.319v4.002a1.32 1.32 0 0 0 1.319 1.319h1.819a1.32 1.32 0 0 0 1.319-1.32v-4a1.32 1.32 0 0 0-1.319-1.32zm-23.376 37.155h22.193a10.3 10.3 0 0 1-.5-3.138v-.136H58.112v-21.648h31.336v11.233h.5c.955 0 1.91.137 2.774.364v-17.327a2.853 2.853 0 0 0-2.865-2.865h-3.956v1.728a2.95 2.95 0 0 1-2.957 2.956h-1.819a2.95 2.95 0 0 1-2.956-2.956v-1.773h-8.731v1.728a2.95 2.95 0 0 1-2.957 2.956h-1.819a2.95 2.95 0 0 1-2.956-2.956v-1.728h-4.002a2.854 2.854 0 0 0-2.866 2.865v27.787c0 1.637 1.273 2.91 2.865 2.91m40.885-3.138a8.637 8.637 0 0 1-8.64 8.641 8.64 8.64 0 0 1-8.642-8.64 8.64 8.64 0 0 1 8.641-8.641c4.775-.046 8.64 3.865 8.64 8.64m-4.229-1.91-1.682-1.682-3.866 3.865-1.637-1.637-1.683 1.683 1.637 1.637 1.683 1.683 1.683-1.683z" fill="#fff"></path><path d="M150.52 211.041q5.259 0 8.37 2.409c3.11 2.409 3.11 3.88 3.11 6.824h-6.1q-.12-2.167-1.466-3.251c-1.345-1.084-2.282-1.084-4.155-1.084q-1.966 0-3.171.863c-1.204.863-1.204 1.37-1.204 2.388q0 1.245.742 1.807c.743.562 1.198.708 2.108 1.003q1.365.442 4.777 1.285 3.573.883 5.5 1.927c1.926 1.044 2.261 1.585 2.93 2.67q1.003 1.626 1.003 3.994 0 2.73-1.445 4.857c-1.445 2.127-2.368 2.495-4.215 3.231q-2.77 1.104-6.262 1.104-5.34 0-8.771-2.67c-3.433-2.668-3.433-4.219-3.433-7.324v-.201h6.102q0 2.53 1.726 3.914c1.726 1.385 2.676 1.385 4.577 1.385q2.529 0 4.074-.903c1.546-.904 1.546-1.492 1.546-2.67q0-1.164-.843-1.967c-.843-.803-1.311-.97-2.248-1.305q-1.405-.502-4.737-1.264-3.853-.963-5.62-2.047c-1.767-1.084-2.074-1.6-2.69-2.63q-.924-1.545-.923-3.713 0-2.69 1.545-4.697c1.546-2.007 2.375-2.328 4.035-2.97a14.1 14.1 0 0 1 5.138-.964m21.436.683v4.697h-5.7v-4.697zm0 7.908v20.754h-5.7v-20.756zm16.459-.562q4.536 0 6.061 3.452 2.37-3.452 6.303-3.452 3.894 0 5.72 1.967c1.827 1.967 1.827 3.117 1.827 5.42v13.929h-5.7v-12.004q0-2.73-.824-3.773c-.823-1.044-1.439-1.044-2.67-1.044q-3.813 0-3.813 5.219v11.6h-5.7v-12.242q0-2.65-.843-3.613c-.843-.963-1.431-.963-2.61-.963q-1.644 0-2.749 1.305c-1.104 1.304-1.104 2.013-1.104 3.432v12.083h-5.7v-20.756h5.379v2.81h.08q2.37-3.372 6.343-3.372m36.088 0q4.296 0 6.865 3.01c2.569 3.011 2.569 4.723 2.569 8.15q0 4.696-2.47 7.707c-2.468 3.01-3.859 3.01-6.643 3.01q-4.094 0-6.222-3.13h-.08v9.875h-5.7v-28.06h5.419v2.65h.08q2.048-3.212 6.182-3.212m-6.182 11q0 3.05 1.285 4.816c1.284 1.767 2.087 1.767 3.693 1.767q2.49 0 3.713-1.767c1.224-1.766 1.224-2.784 1.224-4.817q0-3.13-1.324-4.917c-1.325-1.787-2.114-1.787-3.693-1.787q-2.368 0-3.633 1.767-1.265 1.768-1.265 4.937m24.889-18.345v28.662h-5.7v-28.661zm14.09 7.346q2.93 0 5.218 1.365c2.289 1.365 2.724 2.228 3.593 3.954q1.304 2.589 1.305 5.961 0 .321-.04 1.044h-14.974q.081 2.489 1.305 3.874c1.224 1.385 2.067 1.385 3.753 1.385a5.47 5.47 0 0 0 2.87-.783c1.305-.783 1.426-1.158 1.667-1.907h5.017q-2.207 6.985-9.714 6.985-2.85-.04-5.279-1.245c-2.429-1.204-2.91-2.053-3.874-3.753q-1.445-2.55-1.445-5.921 0-3.171 1.465-5.78c1.466-2.61 2.274-3.037 3.894-3.894a11 11 0 0 1 5.239-1.285m4.375 8.711q-.4-2.328-1.485-3.372c-1.084-1.044-1.752-1.044-3.09-1.044q-2.088 0-3.293 1.184c-1.204 1.185-1.27 1.867-1.405 3.232zm19.55-16.739q5.259 0 8.37 2.409c3.11 2.409 3.11 3.88 3.11 6.824h-6.1q-.12-2.167-1.466-3.251c-1.345-1.084-2.282-1.084-4.155-1.084q-1.966 0-3.171.863c-1.204.863-1.204 1.37-1.204 2.388q0 1.245.742 1.807c.743.562 1.198.708 2.108 1.003q1.366.442 4.777 1.285 3.573.883 5.5 1.927c1.926 1.044 2.261 1.585 2.93 2.67q1.003 1.626 1.003 3.994 0 2.73-1.445 4.857c-1.445 2.127-2.368 2.495-4.215 3.231q-2.77 1.104-6.262 1.104-5.34 0-8.771-2.67c-3.433-2.669-3.433-4.22-3.433-7.325v-.201h6.102q0 2.53 1.726 3.914c1.726 1.385 2.676 1.385 4.577 1.385q2.529 0 4.074-.903c1.546-.904 1.546-1.492 1.546-2.67q0-1.164-.843-1.967c-.843-.803-1.311-.97-2.248-1.305q-1.405-.502-4.737-1.264-3.853-.963-5.62-2.047c-1.767-1.084-2.074-1.6-2.69-2.63q-.924-1.545-.923-3.713 0-2.69 1.545-4.697c1.546-2.007 2.375-2.328 4.035-2.97a14.1 14.1 0 0 1 5.138-.964m25.53 8.029q4.216 0 6.865 2.148c2.65 2.147 2.73 3.337 2.89 5.72h-5.58q-.56-3.573-4.214-3.573-2.248 0-3.553 1.847c-1.305 1.846-1.305 2.864-1.305 4.897q0 2.93 1.245 4.737c1.244 1.807 1.993 1.807 3.492 1.807q3.894 0 4.536-4.215h5.5q-.561 4.134-3.191 6.322c-2.63 2.188-4.02 2.188-6.805 2.188q-4.616 0-7.547-2.95c-2.93-2.951-2.93-4.53-2.93-7.688q0-5.137 2.89-8.19c2.89-3.05 4.496-3.05 7.708-3.05m18.787-7.346v10.797h.12a6.96 6.96 0 0 1 2.61-2.529c1.645-.923 2.261-.923 3.492-.923q3.975 0 5.76 2.007c1.787 2.007 1.787 3.452 1.787 6.343v12.966h-5.7v-11.801q0-2.53-.824-3.774c-.823-1.244-1.49-1.244-2.83-1.244q-2.287 0-3.352 1.385c-1.063 1.385-1.063 2.443-1.063 4.556v10.879h-5.7v-28.662zm27.698 7.346q2.93 0 5.219 1.365c2.288 1.365 2.723 2.228 3.592 3.954q1.304 2.589 1.305 5.961 0 .321-.04 1.044h-14.973q.08 2.489 1.304 3.874c1.225 1.385 2.068 1.385 3.754 1.385q1.565 0 2.87-.783c1.305-.783 1.425-1.158 1.666-1.907h5.018q-2.208 6.985-9.715 6.985-2.85-.04-5.279-1.245c-2.428-1.204-2.91-2.053-3.873-3.753q-1.445-2.55-1.446-5.921 0-3.171 1.466-5.78c1.465-2.61 2.274-3.037 3.893-3.894q2.429-1.285 5.24-1.285m4.375 8.711q-.402-2.328-1.486-3.372c-1.083-1.044-1.752-1.044-3.09-1.044q-2.088 0-3.292 1.184c-1.205 1.185-1.27 1.867-1.405 3.232zm29.304-16.057v28.662h-5.42v-2.65h-.08q-1.845 3.212-6.302 3.212-4.294 0-6.804-3.131c-2.51-3.131-2.51-4.751-2.51-7.989q0-4.737 2.55-7.747c2.549-3.011 3.914-3.011 6.644-3.011q1.887 0 3.552.783c1.666.783 1.973 1.29 2.59 2.308h.08v-10.437zm-15.415 18.265q0 2.85 1.345 4.757c1.345 1.907 2.121 1.907 3.673 1.907q2.45 0 3.673-1.787c1.224-1.786 1.224-2.83 1.224-4.917q0-3.132-1.284-4.858t-3.653-1.726q-2.448 0-3.713 1.807c-1.265 1.806-1.265 2.81-1.265 4.817m25.41-10.357v11.762q0 2.408.763 3.733c.763 1.325 1.471 1.325 2.89 1.325q2.37 0 3.393-1.405c1.023-1.405 1.023-2.435 1.023-4.496v-10.92h5.7v20.754h-5.419v-2.89h-.12q-2.127 3.452-6.383 3.452-4.053 0-5.8-2.068c-1.747-2.067-1.747-3.498-1.747-6.362v-12.886zm23.966-7.908v28.662h-5.7v-28.662zm14.09 7.346q2.93 0 5.218 1.365c2.289 1.365 2.724 2.228 3.593 3.954q1.304 2.589 1.305 5.961 0 .321-.04 1.044h-14.974q.081 2.489 1.305 3.874c1.224 1.385 2.067 1.385 3.753 1.385a5.47 5.47 0 0 0 2.87-.783c1.305-.783 1.426-1.158 1.667-1.907h5.017q-2.206 6.985-9.714 6.985-2.85-.04-5.279-1.245c-2.429-1.204-2.91-2.053-3.874-3.753q-1.445-2.55-1.445-5.921 0-3.171 1.465-5.78c1.466-2.61 2.274-3.037 3.894-3.894a11 11 0 0 1 5.239-1.285m4.375 8.711q-.4-2.328-1.485-3.372c-1.084-1.044-1.752-1.044-3.09-1.044q-2.087 0-3.293 1.184c-1.204 1.185-1.27 1.867-1.405 3.232z" fill="#384259"></path></svg>
